<svg id="Layer_1" data-name="Layer 1" xmlns="http://www.w3.org/2000/svg" width="256" height="256" viewBox="0 0 256 256"><path d="M242.1,61.8a14,14,0,0,0-13.9,13.8,14.6,14.6,0,0,0,6.7,12.1l-8.8,27.7a29.5,29.5,0,0,0-4.6-1L215.9,93a14,14,0,0,0-6.6-26.2,13.9,13.9,0,0,0,0,27.8h.2l5.4,20c-8.9,2.2-16.1,10.5-22.7,17.9s-14.7,16.6-23.5,17.9c-2.2-24-10.2-43-24.1-56.6C122.2,71.9,93.1,72.2,92,72.2a63.1,63.1,0,0,0-63,63A45.2,45.2,0,0,0,42,167C20.1,173.4,6.2,180.9.6,188.9a3.2,3.2,0,0,0-.2,3.5,3.3,3.3,0,0,0,2.9,1.8H227.2a3.4,3.4,0,0,0,3.2-2.9,3.5,3.5,0,0,0-2.4-3.7c-5.7-1.6-14.5-5.6-16.3-9.4a2.1,2.1,0,0,1,0-1.9c.8-1.8,4-5.8,7.4-9.8,9.1-10.7,21.4-25.7,19.8-37.4a14.9,14.9,0,0,0-6.9-10.7h-.3L241,89.5h1.1a13.9,13.9,0,1,0,0-27.7ZM201.8,80.7a7.5,7.5,0,0,1,7.5-7.5,7.3,7.3,0,0,1,7.4,7.5,7.2,7.2,0,0,1-7.4,7.2A7.4,7.4,0,0,1,201.8,80.7ZM91.7,79.1h0c2.4,0,28.3.6,47.8,19.8,14.5,14.1,21.9,35,22.7,61.7H111a45.1,45.1,0,0,0,7.7-25.1,27.3,27.3,0,1,0-54.5,0,3.3,3.3,0,0,0,3.2,3.2,3.4,3.4,0,0,0,3.2-3.2,20.6,20.6,0,1,1,41.2,0,38.5,38.5,0,0,1-77,0C35.4,104.2,60.5,79.1,91.7,79.1Zm140.8,51c1.3,9.1-10.4,23-18.2,32.4-4,4.8-7.2,8.5-8.3,11.2a8.6,8.6,0,0,0,0,7.5,17.6,17.6,0,0,0,6.2,6.6H11.3c7.2-5.3,19.8-10.7,36.6-15.2a44.8,44.8,0,0,0,57.4-5.3h60.1a3.3,3.3,0,0,0,3.3-3.2,49.3,49.3,0,0,0-.3-6.7c11.5-1.6,20.3-11.5,28.3-20.3,11.8-13.4,19.5-20.9,31.5-12.8A7.2,7.2,0,0,1,232.5,130.1Zm9.6-47a7.5,7.5,0,0,1-7.5-7.5,7.5,7.5,0,0,1,15,0A7.5,7.5,0,0,1,242.1,83.1Z" fill="#fff"/></svg>